<svg width="8" height="11" viewBox="0 0 8 11" fill="none" xmlns="http://www.w3.org/2000/svg">
<path d="M0.319092 10.4035V0.596436H4.1894C4.94828 0.596436 5.64879 0.829938 6.29092 1.29694C6.93305 1.76395 7.25412 2.41192 7.25412 3.24085C7.25412 3.83628 7.11985 4.29453 6.85132 4.6156C6.5828 4.93666 6.33178 5.16725 6.09828 5.30735C6.39016 5.43577 6.71414 5.67511 7.07023 6.02537C7.42632 6.37562 7.60437 6.901 7.60437 7.60151C7.60437 8.64059 7.22493 9.36737 6.46604 9.78184C5.70716 10.1963 4.99498 10.4035 4.3295 10.4035H0.319092ZM2.43813 8.44212H4.25945C4.81985 8.44212 5.16135 8.2991 5.28394 8.01306C5.40653 7.72702 5.46782 7.51978 5.46782 7.39136C5.46782 7.26293 5.40653 7.0557 5.28394 6.76966C5.16135 6.48362 4.80234 6.3406 4.20691 6.3406H2.43813V8.44212ZM2.43813 4.44923H4.06681C4.45209 4.44923 4.73229 4.34999 4.90742 4.15151C5.08254 3.95303 5.17011 3.73121 5.17011 3.48603C5.17011 3.20583 5.07087 2.97816 4.87239 2.80303C4.67391 2.62791 4.41706 2.54034 4.10183 2.54034H2.43813V4.44923Z" fill="#BBA69E"/>
</svg>
