<svg width="10" height="11" viewBox="0 0 10 11" fill="none" xmlns="http://www.w3.org/2000/svg">
<path d="M3.1227 3.87346C3.48419 3.73862 3.87047 3.6832 4.2553 3.71075C4.64017 3.73832 5.01468 3.84832 5.3533 4.03332C5.6919 4.21831 5.98675 4.47396 6.21786 4.78291C6.36622 4.98126 6.32576 5.26239 6.12742 5.41075C5.94146 5.54983 5.68277 5.52292 5.52893 5.35557L5.49958 5.32031L5.44002 5.24476C5.29607 5.07241 5.12077 4.9283 4.92321 4.82036C4.6975 4.69706 4.44789 4.62369 4.19136 4.60532C3.93477 4.58694 3.67709 4.62403 3.43607 4.71393C3.22521 4.7926 3.03129 4.91014 2.86429 5.06015L2.79444 5.1265L1.45445 6.46649L1.39489 6.53131C1.1058 6.86159 0.946955 7.28734 0.950784 7.72829C0.954871 8.19861 1.14358 8.64851 1.47613 8.98112C1.80875 9.31373 2.25881 9.5026 2.72918 9.50668C3.19953 9.51076 3.65265 9.32979 3.99098 9.00301L4.7524 8.2416C4.92754 8.0665 5.21145 8.06649 5.38659 8.2416C5.56172 8.41673 5.56169 8.70063 5.38659 8.87578L4.61969 9.64289C4.61791 9.64468 4.61604 9.64639 4.61422 9.64815C4.10671 10.1383 3.42684 10.4096 2.72129 10.4034C2.01577 10.3973 1.34085 10.1144 0.841947 9.61552C0.343049 9.11662 0.0599641 8.44169 0.0538126 7.73617C0.0476817 7.03063 0.318937 6.35076 0.809099 5.84325L2.16003 4.49232L2.21193 4.44195C2.4741 4.19342 2.78378 3.99989 3.1227 3.87346ZM7.20243 0.596537C7.90794 0.602691 8.58288 0.885775 9.08178 1.38467C9.58067 1.88358 9.86355 2.5585 9.86969 3.26402C9.87582 3.96957 9.60458 4.64943 9.1144 5.15694C9.11263 5.15878 9.11074 5.16061 9.10893 5.16242L7.76347 6.50766C7.49069 6.78054 7.16254 6.99165 6.80102 7.12651C6.4395 7.26137 6.05308 7.317 5.6682 7.28944C5.28338 7.26187 4.909 7.15184 4.57042 6.96687C4.25296 6.79343 3.97396 6.5578 3.74988 6.27444L3.70564 6.21728L3.68002 6.17918C3.56294 5.98432 3.61035 5.72854 3.7963 5.58944C3.99462 5.44113 4.27555 5.48162 4.42392 5.67988C4.578 5.88588 4.77477 6.05628 5.00051 6.17961C5.22624 6.30293 5.4758 6.37628 5.73237 6.39466C5.98892 6.41303 6.24644 6.37614 6.48744 6.28626C6.72845 6.19635 6.94742 6.05562 7.12929 5.87369L8.46927 4.53371C8.79604 4.19537 8.97702 3.74225 8.97294 3.2719C8.96885 2.80154 8.77998 2.35147 8.44737 2.01886C8.11477 1.6863 7.66487 1.4976 7.19454 1.49351C6.72418 1.48942 6.27108 1.6704 5.93274 1.99718L5.16585 2.75947L5.13169 2.79013C4.95512 2.93325 4.69537 2.92216 4.53166 2.7575C4.3571 2.58185 4.35781 2.29793 4.53341 2.12332L5.3049 1.35642C5.30644 1.3549 5.30795 1.35332 5.3095 1.35182C5.81701 0.861664 6.49689 0.590406 7.20243 0.596537Z" fill="#BBA69E"/>
</svg>
