<svg width="8" height="11" viewBox="0 0 8 11" fill="none" xmlns="http://www.w3.org/2000/svg">
<path d="M0.0356445 10.5477V9.42602H7.88768V10.5477H0.0356445ZM3.96166 8.3043C3.01755 8.3043 2.28376 8.00985 1.76029 7.42095C1.23682 6.83205 0.975084 6.05152 0.975084 5.07936V0.452271H2.4193V5.16349C2.4193 5.68696 2.55016 6.11228 2.8119 6.43944C3.07363 6.76661 3.45689 6.9302 3.96166 6.9302C4.46643 6.9302 4.84969 6.76661 5.11142 6.43944C5.37316 6.11228 5.50402 5.68696 5.50402 5.16349V0.452271H6.94824V5.07936C6.94824 6.05152 6.6865 6.83205 6.16303 7.42095C5.63956 8.00985 4.90577 8.3043 3.96166 8.3043Z" fill="#BBA69E"/>
</svg>
